<?xml version="1.0" standalone="no"?>
<!DOCTYPE svg PUBLIC "-//W3C//DTD SVG 20010904//EN"
 "http://www.w3.org/TR/2001/REC-SVG-20010904/DTD/svg10.dtd">
<svg version="1.0" xmlns="http://www.w3.org/2000/svg"
 width="1024.000000pt" height="1024.000000pt" viewBox="0 0 1024.000000 1024.000000"
 preserveAspectRatio="xMidYMid meet">

<g transform="translate(0.000000,1024.000000) scale(0.100000,-0.100000)"
fill="#000000" stroke="none">
<path d="M2090 8686 c0 -7 -7 -80 -17 -162 -24 -222 -25 -881 0 -1054 56 -398
165 -759 318 -1056 81 -157 111 -206 233 -374 101 -140 344 -391 484 -500 76
-60 188 -134 215 -143 6 -2 -16 -35 -50 -73 -276 -310 -571 -661 -562 -667 2
-2 40 -13 84 -26 97 -27 260 -93 495 -198 l175 -79 7 -99 c20 -301 99 -576
258 -900 128 -262 254 -454 509 -780 206 -262 305 -367 714 -758 l176 -169
133 119 c413 368 745 732 979 1073 149 218 326 541 409 749 74 187 146 487
168 700 l7 73 130 55 c72 30 213 90 315 133 102 44 208 84 235 91 28 7 52 13
54 15 11 9 -293 389 -439 549 -40 44 -93 106 -118 139 -39 50 -43 60 -29 68
98 54 407 316 507 429 398 448 619 955 705 1616 17 137 36 546 30 648 -3 39
-10 171 -16 295 -6 124 -14 241 -17 262 l-7 36 -123 -53 c-472 -205 -957 -562
-1295 -954 -274 -318 -446 -609 -551 -933 -56 -172 -69 -222 -111 -437 -25
-129 -26 -135 -8 -144 10 -5 109 -102 221 -215 157 -157 234 -245 335 -379
168 -222 227 -302 281 -381 24 -34 75 -102 114 -150 148 -183 222 -277 222
-284 0 -5 -5 -8 -11 -8 -6 0 -44 -16 -84 -35 -41 -19 -141 -61 -222 -94 -195
-77 -418 -182 -597 -280 -144 -79 -454 -283 -594 -390 -193 -149 -237 -179
-314 -217 -117 -59 -201 -78 -313 -71 -184 11 -299 66 -525 246 -272 219 -528
377 -909 563 -301 147 -454 211 -659 274 -19 6 5 45 88 144 40 47 93 112 118
145 25 33 70 87 100 119 29 32 66 77 80 100 23 35 175 243 326 446 61 81 370
393 432 436 39 27 53 42 48 53 -3 9 -19 78 -35 154 -91 441 -233 753 -529
1162 -193 267 -465 526 -790 750 -234 163 -364 239 -591 350 -162 79 -189 89
-189 71z m5911 -536 c13 -178 5 -533 -16 -692 -53 -407 -180 -785 -363 -1082
-142 -232 -353 -477 -527 -613 -70 -54 -74 -57 -68 -33 3 11 8 20 12 20 17 0
9 86 -14 151 -19 56 -25 92 -25 160 l0 87 63 93 c35 52 88 137 117 189 29 52
65 108 79 124 22 25 23 28 6 22 -75 -29 -142 -51 -225 -76 -52 -15 -148 -49
-213 -74 -113 -44 -170 -60 -118 -33 23 12 102 140 114 186 4 17 2 21 -10 17
-9 -4 -13 -1 -11 6 4 12 70 50 288 167 215 116 277 161 346 255 l61 83 -91
-39 c-50 -22 -140 -56 -201 -77 -60 -21 -159 -57 -220 -79 -148 -55 -244 -84
-222 -68 9 7 17 18 17 25 0 6 5 11 10 11 6 0 10 11 10 24 0 14 11 33 25 44 14
11 25 24 25 28 0 5 18 18 39 29 41 21 187 116 284 184 32 23 62 52 67 66 6 16
17 25 30 25 13 0 19 4 14 11 -9 15 16 30 39 23 13 -4 17 1 17 21 0 21 4 26 16
21 10 -4 14 -1 12 6 -6 16 17 39 33 36 7 -2 15 8 19 22 3 14 12 25 20 25 8 0
19 6 23 13 5 7 12 10 18 7 5 -4 9 -2 9 4 0 6 6 9 13 6 14 -4 60 50 60 71 0 7
3 11 7 9 3 -2 42 55 85 128 83 139 96 163 72 135 -8 -10 -19 -18 -26 -18 -6 0
-11 -9 -11 -19 0 -24 -13 -33 -34 -25 -11 4 -16 19 -16 45 0 32 -3 39 -20 39
-18 0 -20 7 -20 80 0 73 2 80 20 80 13 0 20 7 20 20 0 11 -7 20 -15 20 -8 0
-29 14 -47 30 -31 30 -58 39 -58 20 0 -6 -3 -9 -7 -8 -14 2 -43 -14 -38 -21 2
-4 -10 -16 -28 -26 -43 -25 -74 -55 -58 -55 7 0 9 -5 5 -11 -4 -7 -9 -8 -13
-1 -7 12 -38 -11 -61 -44 -9 -12 -41 -43 -73 -68 -31 -26 -55 -52 -52 -57 4
-5 2 -9 -4 -9 -5 0 -34 -25 -65 -55 -57 -57 -74 -68 -57 -37 18 33 266 268
371 352 114 90 351 249 464 311 l71 38 8 -52 c4 -28 12 -117 18 -197z m-5648
60 c24 -47 90 -175 147 -285 116 -228 187 -355 241 -435 42 -64 115 -134 130
-125 5 4 8 1 7 -5 -3 -11 48 -45 296 -198 259 -160 304 -193 417 -306 22 -21
39 -36 39 -34 0 3 19 -13 43 -36 23 -23 58 -54 78 -71 45 -39 27 -29 -31 17
-65 51 -182 112 -285 148 -192 67 -638 220 -642 220 -5 0 64 -82 122 -145 41
-45 73 -64 443 -260 111 -59 201 -109 199 -112 -2 -2 -28 8 -58 22 -68 32 -84
32 -74 3 3 -13 10 -39 14 -58 4 -19 13 -45 20 -58 6 -12 9 -27 6 -32 -4 -6 13
-19 37 -30 24 -11 34 -18 23 -15 -79 24 -469 149 -497 160 -35 14 161 -313
230 -383 49 -51 51 -68 23 -181 -54 -212 -63 -262 -49 -278 7 -9 -16 3 -52 26
-139 93 -380 366 -520 591 -127 203 -253 506 -310 745 -68 286 -83 406 -88
721 -5 360 17 658 40 524 4 -25 27 -83 51 -130z m252 2 c179 -114 365 -251
365 -268 0 -6 -89 54 -108 72 -6 7 -21 16 -32 19 -11 4 -18 11 -15 16 4 5 0 9
-7 9 -7 0 -24 12 -37 25 -13 14 -34 28 -47 31 -13 4 -38 19 -55 35 -16 15 -46
34 -65 41 -19 6 -34 18 -34 25 0 7 -3 12 -7 11 -5 -2 -17 5 -28 14 -11 10 -29
25 -40 34 -32 25 3 5 110 -64z m535 -429 c115 -118 112 -118 -9 0 -81 79 -98
97 -88 97 1 0 45 -44 97 -97z m3891 -142 c-30 -30 -39 -26 -11 4 13 14 25 23
28 21 2 -2 -6 -14 -17 -25z m-72 -83 c-22 -24 -39 -45 -39 -48 0 -3 -21 -28
-47 -55 -53 -57 -49 -44 11 30 52 66 98 115 107 115 4 0 -11 -19 -32 -42z
m-148 -181 c-10 -9 -11 -8 -5 6 3 10 9 15 12 12 3 -3 0 -11 -7 -18z m-61 -94
c-67 -98 -110 -174 -110 -193 0 -11 -4 -20 -10 -20 -5 0 -10 -11 -10 -25 0
-14 -8 -29 -20 -35 -11 -6 -20 -16 -20 -23 0 -7 -6 -19 -12 -25 -7 -7 -13 -16
-14 -20 -1 -11 -38 -86 -45 -92 -4 -3 -17 -29 -29 -58 -13 -29 -25 -51 -27
-48 -6 5 58 158 108 259 43 86 209 341 217 333 2 -3 -10 -26 -28 -53z m-2976
-379 c3 -8 2 -12 -4 -9 -6 3 -10 10 -10 16 0 14 7 11 14 -7z m2846 -144 c0 -5
-5 -10 -11 -10 -5 0 -7 5 -4 10 3 6 8 10 11 10 2 0 4 -4 4 -10z m-2717 -160
c4 -17 3 -19 -9 -9 -8 6 -14 18 -14 26 0 20 16 8 23 -17z m2517 -8 c-8 -4 -16
-14 -18 -22 -4 -20 -32 -63 -38 -58 -2 3 4 23 13 46 12 31 21 42 37 41 16 0
17 -2 6 -7z m-2489 -359 c8 -7 20 -13 26 -13 5 0 20 -11 33 -25 13 -14 21 -25
18 -25 -5 0 -137 87 -148 97 -11 10 56 -22 71 -34z m2361 -95 c-7 -7 -12 -8
-12 -2 0 14 12 26 19 19 2 -3 -1 -11 -7 -17z m-2810 -515 c-10 -16 -22 -36
-25 -47 -6 -14 -10 -16 -21 -7 -12 10 -8 18 22 46 45 42 49 43 24 8z m3023
-1480 c-27 -185 -137 -516 -241 -725 -190 -381 -495 -773 -931 -1198 l-185
-180 -46 39 c-26 21 -139 133 -252 248 -294 299 -561 620 -706 850 -59 92
-217 409 -252 503 -41 112 -125 500 -108 500 29 0 663 -396 652 -407 -3 -4 -1
-13 6 -20 9 -11 9 -16 -2 -23 -8 -5 -11 -12 -7 -17 5 -4 12 -2 16 5 4 8 15 10
27 6 13 -5 9 2 -11 19 -16 15 -26 27 -22 27 16 0 217 -142 212 -150 -3 -5 0
-12 6 -16 8 -4 9 -3 5 4 -11 18 3 15 40 -9 36 -22 46 -42 17 -33 -38 12 -83
39 -83 49 0 6 -29 28 -63 48 -51 30 -74 37 -115 37 -29 0 -52 -4 -52 -10 0 -5
7 -10 15 -10 8 0 15 -4 15 -10 0 -5 -7 -10 -15 -10 -17 0 -40 -75 -29 -99 4
-9 6 -22 5 -30 -1 -7 2 -10 8 -6 6 3 11 2 11 -3 0 -13 80 -63 91 -56 5 3 8 1
7 -3 -2 -5 62 -54 142 -108 80 -54 157 -107 172 -118 15 -11 31 -16 39 -12 7
5 10 4 6 -2 -7 -12 68 -65 143 -103 25 -12 53 -29 62 -37 9 -8 21 -12 27 -9 5
4 13 1 17 -5 5 -8 2 -10 -7 -5 -8 4 -5 0 5 -8 11 -9 23 -16 26 -16 12 0 90 60
90 68 0 5 6 9 13 9 17 0 360 212 409 253 13 11 15 16 5 23 -8 6 -5 7 9 4 12
-2 26 -2 31 2 17 10 44 71 38 82 -4 5 7 22 24 38 37 34 43 81 11 81 -16 0 -20
7 -20 34 0 19 6 36 13 39 6 2 9 7 6 11 -10 11 -67 -23 -72 -44 -3 -14 -14 -20
-32 -20 -31 0 -63 -15 -88 -42 -10 -10 -22 -16 -28 -13 -5 4 -9 2 -9 -4 0 -5
-9 -13 -20 -16 -11 -4 -17 -11 -14 -17 5 -7 2 -8 -5 -4 -7 5 -20 1 -29 -7 -9
-9 -30 -19 -47 -23 -16 -4 -48 -15 -70 -24 -22 -10 -47 -18 -55 -17 -8 0 -37
-3 -65 -6 -32 -4 -12 4 58 23 129 35 175 58 313 150 58 39 110 68 116 64 6 -4
8 -3 5 3 -9 14 296 221 533 362 191 114 235 139 238 140 2 1 0 -20 -3 -46z
m-1630 -651 c-8 -2 -22 4 -31 12 -8 9 -22 16 -29 16 -8 0 -27 11 -42 25 -23
20 -15 17 44 -13 40 -20 66 -38 58 -40z m102 -28 c-3 -3 -12 -4 -19 -1 -8 3
-5 6 6 6 11 1 17 -2 13 -5z m743 -14 c0 -5 -4 -10 -10 -10 -5 0 -10 5 -10 10
0 6 5 10 10 10 6 0 10 -4 10 -10z"/>
<path d="M7575 8131 c-3 -5 -1 -12 5 -16 5 -3 10 1 10 9 0 18 -6 21 -15 7z"/>
<path d="M7775 7919 c-4 -6 -5 -12 -2 -15 2 -3 7 2 10 11 7 17 1 20 -8 4z"/>
<path d="M7416 7385 c-11 -8 -15 -15 -9 -15 6 0 16 7 23 15 16 19 11 19 -14 0z"/>
<path d="M4405 3769 c-4 -6 -5 -12 -2 -15 2 -3 7 2 10 11 7 17 1 20 -8 4z"/>
<path d="M4210 3650 c0 -5 5 -10 11 -10 5 0 7 5 4 10 -3 6 -8 10 -11 10 -2 0
-4 -4 -4 -10z"/>
<path d="M4305 3590 c3 -5 16 -10 28 -9 21 0 21 1 2 9 -28 12 -37 12 -30 0z"/>
<path d="M4359 3557 c7 -9 20 -17 29 -17 14 0 8 15 -6 15 -4 0 -14 4 -22 10
-13 8 -13 7 -1 -8z"/>
<path d="M5930 3550 c-8 -5 -12 -12 -9 -15 4 -3 12 1 19 10 14 17 11 19 -10 5z"/>
<path d="M5605 5708 c-53 -30 -155 -138 -155 -163 1 -5 18 -22 39 -36 l38 -27
54 48 c30 27 68 66 83 88 28 40 28 41 10 71 -19 33 -36 37 -69 19z"/>
<path d="M4641 5684 c-37 -31 -37 -31 63 -134 l66 -68 40 20 c22 11 40 26 40
33 0 28 -144 175 -171 175 -4 0 -21 -12 -38 -26z"/>
<path d="M4015 5419 c-33 -5 -120 -24 -193 -42 l-134 -33 36 -28 c51 -38 128
-71 218 -92 l76 -17 12 -46 c28 -111 98 -208 176 -242 66 -30 175 -43 250 -30
78 14 101 5 187 -77 56 -54 91 -105 192 -280 26 -46 49 -81 52 -79 9 10 -27
307 -47 382 -28 108 -100 255 -161 331 -89 109 -208 194 -329 234 -75 25 -239
35 -335 19z m350 -151 c59 -27 71 -102 24 -142 -62 -53 -149 -22 -149 53 1 39
12 58 50 84 29 20 40 21 75 5z"/>
<path d="M5979 5411 c-240 -65 -407 -224 -510 -484 -31 -78 -68 -268 -75 -387
-7 -118 -1 -122 39 -24 50 124 193 306 288 367 26 17 37 18 106 9 134 -18 226
8 306 86 59 57 90 109 112 184 l16 56 52 7 c30 4 94 28 151 56 55 27 105 49
112 49 7 0 15 4 18 9 3 5 -34 18 -82 29 -273 65 -412 76 -533 43z m16 -143
c32 -14 55 -56 55 -97 0 -33 -48 -81 -81 -81 -29 0 -77 27 -89 49 -24 46 -2
113 44 131 29 12 41 12 71 -2z"/>
<path d="M5049 4286 c-91 -24 -139 -79 -139 -158 0 -57 28 -101 87 -138 96
-59 113 -74 125 -115 17 -60 28 -65 28 -12 0 51 -3 48 106 116 183 115 111
323 -111 320 -27 0 -71 -6 -96 -13z"/>
</g>
</svg>
